<svg id="Layer_1" data-name="Layer 1" xmlns="http://www.w3.org/2000/svg" viewBox="0 0 28 28"><title>Effect Lite</title><g style="opacity:0.3499999940395355"><path d="M17.3,8.6v-1a.5.5,0,1,1,0,1Z" style="fill:#166fb2"/><path d="M21.6,23H20a.5.5,0,0,1,0-1h1.6a.5.5,0,0,1,0,1Zm-3,0H17a.5.5,0,0,1,0-1h1.6a.47.47,0,0,1,.5.5A.54.54,0,0,1,18.6,23Zm-3.1,0H13.9a.5.5,0,0,1,0-1h1.6a.5.5,0,0,1,0,1Zm-3.1,0h-.9a1,1,0,0,1-1-.8c-.1-.3.1-.5.4-.6s.5.1.6.4h.9a.5.5,0,1,1,0,1Zm10.1-.9a.47.47,0,0,1-.5-.5V20a.47.47,0,0,1,.44-.5h.06a.54.54,0,0,1,.5.5v1.6a.47.47,0,0,1-.44.5Zm0-3.1a.47.47,0,0,1-.5-.5V17a.5.5,0,0,1,1,0v1.6A.46.46,0,0,1,22.5,19Zm0-3a.47.47,0,0,1-.5-.5V13.9a.5.5,0,0,1,1,0v1.6A.54.54,0,0,1,22.5,16Zm0-3.1a.47.47,0,0,1-.5-.5V10.8a.5.5,0,1,1,1,0v1.6a.47.47,0,0,1-.44.5Zm0-3.1a.47.47,0,0,1-.5-.5V8.6h-.1a.5.5,0,0,1,0-1H22a.94.94,0,0,1,1,1v.7a.47.47,0,0,1-.44.5ZM20.4,8.6H18.8a.5.5,0,0,1,0-1h1.6a.5.5,0,0,1,0,1Z" style="fill:#166fb2"/><path d="M11,21.1a.47.47,0,0,1-.5-.5v-.8a.5.5,0,0,1,1,0v.8a.47.47,0,0,1-.44.5Z" style="fill:#166fb2"/></g><path d="M16.8,20.3H6a.94.94,0,0,1-1-1V6a.94.94,0,0,1,.88-1H16.8a.94.94,0,0,1,1,1V19.3a.94.94,0,0,1-.88,1ZM6,6V19.3H16.8V6Z" style="fill:#166fb2"/></svg>